<?xml version="1.0" encoding="UTF-8"?>
<svg width="24px" height="24px" viewBox="0 0 24 24" version="1.1" xmlns="http://www.w3.org/2000/svg">
    <title>Spa Icon</title>
    <g stroke="none" stroke-width="1" fill="none" fill-rule="evenodd">
        <path d="M12,2 C14.5,2 17,3 18.5,5 C20,7 20.5,9.5 19.5,12 C18.5,14.5 16.5,16.5 14,17.5 C11.5,18.5 9,18 7,16.5 C5,15 4,12.5 4.5,10 C5,7.5 7,5.5 9.5,4.5 C10.3,4.2 11.2,4 12,4 Z" fill="#e74c3c" fill-rule="nonzero"></path>
        <path d="M12,6 C13.5,6 15,6.5 16,7.5 C17,8.5 17.5,10 17,11.5 C16.5,13 15.5,14 14,14.5 C12.5,15 11,14.5 10,13.5 C9,12.5 8.5,11 9,9.5 C9.5,8 10.5,7 12,6 Z" fill="#ffffff" fill-rule="nonzero"></path>
    </g>
</svg>
